<svg width="136" height="136" viewBox="0 0 136 136" fill="none" xmlns="http://www.w3.org/2000/svg">
<g clip-path="url(#clip0_7_770)">
<path d="M131.601 74.2655L79.7896 18.1481C76.885 15.002 72.5512 13.6118 68.3588 14.4665L62.2099 15.7277L39.5525 20.3666L39.1123 20.4551C38.889 20.5003 38.6704 20.5515 38.4541 20.6095C38.3407 20.6399 38.2251 20.6744 38.109 20.7093C35.6996 21.4177 33.5998 22.8416 32.0614 24.7522C31.0659 25.9837 30.3018 27.4179 29.8399 28.9923L21.3869 57.8451C20.1822 61.9637 21.2206 66.4159 24.1348 69.5708L75.926 125.667C78.5707 128.53 82.1298 130.039 85.735 130.166C88.6755 130.273 91.6493 129.458 94.1867 127.703C94.7272 127.33 95.249 126.914 95.7487 126.456L100.37 122.188L130.808 94.0859C136.501 88.8307 136.855 79.9556 131.601 74.2655ZM52.4706 50.9223C52.3533 51.1158 52.2371 51.3017 52.1127 51.4822C52.0605 51.5624 52.0017 51.6445 51.9443 51.7187C51.7569 51.9677 51.5558 52.2056 51.3464 52.4275C51.2754 52.5054 51.2066 52.5791 51.1326 52.6468C51.0616 52.7246 50.985 52.7969 50.9103 52.8609C48.3617 55.1929 44.502 55.7228 41.3487 53.9025C37.4498 51.6486 36.117 46.6747 38.3685 42.7802C40.4169 39.2273 44.7335 37.8056 48.4374 39.2908C48.6848 39.3901 48.936 39.5032 49.1841 39.6319C49.2843 39.6898 49.386 39.7398 49.4908 39.8003C53.3842 42.0479 54.7169 47.0219 52.4706 50.9223Z" fill="#E8E8E8"/>
<path d="M75.9261 125.667C78.5708 128.53 82.1299 130.039 85.7351 130.166C88.6756 130.273 91.6493 129.458 94.1867 127.703C94.7272 127.33 95.2491 126.914 95.7488 126.456L100.37 122.188L130.808 94.086C136.501 88.831 136.855 79.9559 131.601 74.2658L107.397 48.0499L77.4054 30.7343C76.3055 29.9546 75.0713 29.3481 73.738 28.9615L67.7058 27.2152L45.0614 20.6616C43.2039 20.1242 41.285 20.0482 39.4497 20.3871L39.1434 20.4488C39.0489 20.4686 38.9548 20.4919 38.8606 20.5141C38.7414 20.5411 38.621 20.5671 38.5038 20.5979C38.2929 20.6544 38.0844 20.7197 37.8762 20.7875C37.7918 20.8143 37.7084 20.8435 37.625 20.8719C35.8604 21.4902 34.2295 22.5115 32.882 23.9044L32.0575 24.757C31.0639 25.9873 30.3011 27.4199 29.8396 28.9922L21.3867 57.8451C20.182 61.9636 21.2204 66.4159 24.1345 69.5707L75.9261 125.667ZM38.3682 42.7802C40.4167 39.2272 44.7332 37.8055 48.4372 39.2908C48.6846 39.39 48.9357 39.5031 49.1839 39.6319C49.2841 39.6897 49.3858 39.7397 49.4905 39.8002C53.3843 42.0483 54.717 47.0217 52.4707 50.9225C52.3534 51.1159 52.2372 51.3018 52.1128 51.4823C52.0606 51.5625 52.0018 51.6446 51.9444 51.7188C51.757 51.9678 51.5559 52.2057 51.3464 52.4276C51.2755 52.5055 51.2067 52.5792 51.1327 52.6469C51.0617 52.7248 50.9851 52.797 50.9104 52.861C48.3618 55.193 44.502 55.7229 41.3488 53.9026C37.4498 51.6487 36.1171 46.6748 38.3682 42.7802Z" fill="url(#paint0_linear_7_770)"/>
<path d="M80.0479 34.5189L74.6733 31.2709L54.4967 19.08C50.6238 16.7412 45.7741 16.733 41.8933 19.0601L16.1099 34.5269C12.4294 36.7335 10.1747 40.7104 10.1747 45.0037V121.354C10.1747 129.1 16.4544 135.379 24.2037 135.379H71.9219C79.6675 135.379 85.9469 129.1 85.9469 121.354V44.9755C85.9472 40.6942 83.7082 36.7335 80.0479 34.5189ZM42.3058 50.2262C39.1257 47.0421 39.1257 41.8919 42.3058 38.7121C45.2054 35.8125 49.7428 35.5565 52.9348 37.9471C53.151 38.1073 53.3632 38.2837 53.5675 38.4717C53.6514 38.5517 53.7356 38.6279 53.8198 38.7121C56.9996 41.8919 56.9996 47.0424 53.8198 50.2262C53.6597 50.3823 53.4992 50.5345 53.3313 50.6748C53.2594 50.7388 53.1831 50.8031 53.1072 50.8591C52.8628 51.0514 52.6067 51.2315 52.3461 51.3917C52.2582 51.4478 52.1698 51.5001 52.0819 51.5479C51.9939 51.604 51.9015 51.652 51.8136 51.6961C48.7456 53.2899 44.881 52.8014 42.3058 50.2262Z" fill="#FDC347"/>
<path d="M85.9473 121.354C85.9473 121.354 85.9473 121.017 85.9473 120.394L38.8998 73.3578C37.0744 71.8982 34.6577 71.1672 31.6487 71.1672C25.0392 71.1672 21.7343 74.2121 21.7343 80.3018V91.2928C21.7343 94.5895 22.7115 96.986 24.6487 98.4979L61.5305 135.38H71.9223C79.6676 135.379 85.9473 129.1 85.9473 121.354Z" fill="url(#paint1_linear_7_770)"/>
<path d="M63.6494 69.0878C63.0004 68.5435 62.2779 68.2708 61.4795 68.2708C60.3933 68.2708 59.653 68.7165 59.2583 69.6076L32.0942 124.174C31.8971 124.521 31.7985 124.892 31.7985 125.288C31.7985 125.981 32.0724 126.612 32.6209 127.182L40.8186 135.38H71.922C79.6676 135.38 85.947 129.1 85.947 121.355C85.947 121.355 85.947 111.394 85.947 98.9874V91.4951L63.6494 69.0878Z" fill="url(#paint2_linear_7_770)"/>
<path d="M71.6502 98.3849C69.8248 96.9253 67.4079 96.1943 64.3992 96.1943C57.7896 96.1943 54.4847 99.2392 54.4847 105.329V116.32C54.4847 119.617 55.462 122.013 57.3992 123.525L69.2537 135.38H71.9217C79.6673 135.38 85.9467 129.1 85.9467 121.355C85.9467 121.355 85.9467 117.963 85.9467 112.678L71.6502 98.3849Z" fill="url(#paint3_linear_7_770)"/>
<path d="M21.7343 91.2927V80.3017C21.7343 74.212 25.0392 71.1671 31.6487 71.1671C34.6575 71.1671 37.0746 71.8981 38.8998 73.3577C40.7238 74.8187 41.637 77.1339 41.637 80.3014V91.2925C41.637 94.4614 40.7241 96.7763 38.8998 98.2362C37.0744 99.6971 34.6575 100.427 31.6487 100.427C25.0392 100.427 21.7343 97.3822 21.7343 91.2927ZM27.0069 91.1687C27.0069 94.0244 28.5539 95.4516 31.6485 95.4516C34.7916 95.4516 36.3638 94.0244 36.3638 91.1687V80.4257C36.3638 77.5713 34.7916 76.1431 31.6485 76.1431C28.5537 76.1431 27.0069 77.5713 27.0069 80.4257C27.0072 80.4257 27.0072 91.1687 27.0069 91.1687ZM31.7985 125.288C31.7985 124.892 31.8971 124.521 32.0942 124.174L59.2586 69.6076C59.6533 68.7165 60.3936 68.2708 61.4797 68.2708C62.2779 68.2708 63.0007 68.5435 63.6496 69.0878C64.2983 69.6331 64.6231 70.3015 64.6231 71.0928C64.6231 71.4899 64.5488 71.8854 64.4013 72.2809L37.2348 126.625C36.7899 127.565 35.9513 128.036 34.7178 128.036C33.8688 128.036 33.1702 127.751 32.6209 127.182C32.0724 126.612 31.7985 125.981 31.7985 125.288ZM54.485 116.473V105.398C54.485 99.2623 57.7899 96.1943 64.3995 96.1943C67.4082 96.1943 69.8254 96.9312 71.6505 98.4025C73.4746 99.8738 74.3878 102.206 74.3878 105.398V116.473C74.3878 119.666 73.4746 121.998 71.6505 123.47C69.8251 124.941 67.4082 125.677 64.3995 125.677C57.7897 125.677 54.485 122.609 54.485 116.473ZM59.7577 116.37C59.7577 119.257 61.3047 120.701 64.3992 120.701C67.5424 120.701 69.1146 119.258 69.1146 116.37V105.501C69.1146 102.614 67.5424 101.169 64.3992 101.169C61.3044 101.169 59.7577 102.614 59.7577 105.501V116.37Z" fill="url(#paint4_linear_7_770)"/>
<path d="M85.947 44.975V70.9377L54.4832 39.4739C54.2805 39.2106 54.06 38.9546 53.8217 38.7129C53.7365 38.6276 53.651 38.553 53.5691 38.4709C53.5123 38.4175 53.4552 38.3675 53.3949 38.3216C53.2456 38.1864 53.0889 38.0621 52.9362 37.9484C49.8921 35.6688 45.6285 35.7934 42.7269 38.3256V18.6035C46.0801 16.9319 50.0167 16.8931 53.3952 18.4895C53.7684 18.6637 54.1384 18.8627 54.4975 19.08L74.6746 31.27L80.0477 34.5202C83.7067 36.7321 85.947 40.6934 85.947 44.975Z" fill="url(#paint5_linear_7_770)"/>
<path d="M48.0609 48.0189C45.1151 48.0189 42.7269 45.6307 42.7269 42.6849V5.33402C42.7269 2.38823 45.1151 0 48.0609 0C51.0067 0 53.3949 2.38823 53.3949 5.33402V42.6846C53.3952 45.6307 51.0067 48.0189 48.0609 48.0189Z" fill="url(#paint6_linear_7_770)"/>
</g>
<defs>
<linearGradient id="paint0_linear_7_770" x1="62.5023" y1="14.1675" x2="122.935" y2="103.535" gradientUnits="userSpaceOnUse">
<stop stop-color="white"/>
<stop offset="1" stop-color="white" stop-opacity="0"/>
</linearGradient>
<linearGradient id="paint1_linear_7_770" x1="50.2948" y1="104.481" x2="28.05" y2="82.236" gradientUnits="userSpaceOnUse">
<stop stop-color="#FDC347" stop-opacity="0"/>
<stop offset="1" stop-color="#F59500"/>
</linearGradient>
<linearGradient id="paint2_linear_7_770" x1="73.9133" y1="123.915" x2="39.6661" y2="89.6677" gradientUnits="userSpaceOnUse">
<stop stop-color="#FDC347" stop-opacity="0"/>
<stop offset="1" stop-color="#F59500"/>
</linearGradient>
<linearGradient id="paint3_linear_7_770" x1="89.4968" y1="135.966" x2="55.5989" y2="102.065" gradientUnits="userSpaceOnUse">
<stop stop-color="#FDC347" stop-opacity="0"/>
<stop offset="1" stop-color="#F59500"/>
</linearGradient>
<linearGradient id="paint4_linear_7_770" x1="48.0599" y1="82.2146" x2="48.0599" y2="148.936" gradientUnits="userSpaceOnUse">
<stop stop-color="white"/>
<stop offset="1" stop-color="#E2EDF2"/>
</linearGradient>
<linearGradient id="paint5_linear_7_770" x1="82.6256" y1="51.9129" x2="28.2748" y2="21.6522" gradientUnits="userSpaceOnUse">
<stop stop-color="#FDC347"/>
<stop offset="1" stop-color="#F59500"/>
</linearGradient>
<linearGradient id="paint6_linear_7_770" x1="39.0001" y1="21.5" x2="55.0001" y2="44" gradientUnits="userSpaceOnUse">
<stop stop-color="#FF7A7A"/>
<stop offset="1" stop-color="#F75900"/>
</linearGradient>
<clipPath id="clip0_7_770">
<rect width="136" height="136" fill="white"/>
</clipPath>
</defs>
</svg>
